# xmcd
#
# Track frame offsets: 
#        183
#        13653
#        28738
#        41100
#        57583
#        67393
#        83110
#        97078
#        108450
#        122215
#
# Disc length: 1890 seconds
#
# Revision: 0
# Processed by: cddbd v1.5.2PL0 Copyright (c) Steve Scherf et al.
# Submitted via: ExactAudioCopy v0.95b4
#
DISCID=9407600a
DTITLE=Díaz, Simón - Música and Folklore Venezuela
DYEAR=1991
DGENRE=Folklore
TTITLE0=Caballo Viejo
TTITLE1=Arbolito Sabanero
TTITLE2=El Becerrito
TTITLE3=Tonada del Cabestrero
TTITLE4=Parranda Serrana
TTITLE5=Sabana
TTITLE6=El Loco Juan Carabina
TTITLE7=Al Alcaraván
TTITLE8=Pasaje del Olvido
TTITLE9=Por Aquí Pasó
EXTD=
EXTT0=
EXTT1=
EXTT2=
EXTT3=
EXTT4=
EXTT5=
EXTT6=
EXTT7=
EXTT8=
EXTT9=
PLAYORDER=
